<svg height="46" viewBox="0 0 234 46" width="234" xmlns="http://www.w3.org/2000/svg"><g fill="none" fill-rule="evenodd" transform="translate(.5)"><path d="m67.1666667 34.4821144c-1.9356173 1.8467675-5.3931018 2.1685927-7.2726872.2565904l-32.4654831-33.0282491c-1.6191213-1.64702463-4.1674245-1.77019424-5.9268545-.37168332-.0212218.01615339-.0421384.03292807-.0630549.04970274-.0074811.00621285-.0149621.01242569-.0224432.01863853-.0958801.0781265-.189012.16029135-.276953.24991161-4.9814892 5.06766057-18.13400685 18.45291984-19.77908303 20.12681494-.01557288.0152215-.03145111.0296664-.04671864.0451985-1.75118551 1.7813773-1.75118551 4.6700386 0 6.4514159.01404613.0142896.02870295.0274919.04290175.0414708.01709964.0180172.03328322.0365004.05084087.054207.10015499.1022013 9.62587135 9.7928382 9.62587135 9.7928382-1.87531056-1.9078087-2.0597423-5.0926673-.1803096-7.0045143l10.440852-10.6219421c1.6739318-1.7029402 4.5306391-1.4239835 6.1575469.1821916 6.4824399 6.6238224 23.2973323 23.7010635 23.4093959 23.8150692 1.3472067 1.3705531 3.3380924 1.6853889 4.9824052.9473032.5488677-.2269241 1.0629254-.5663007 1.5081265-1.0192169.1003076-.1018906 9.8156467-9.9857469 9.8156467-9.9857469" fill="#00cc62"/><g fill="#663991"><path d="m7.5 34.6071144c1.93561725 1.8467675 5.3931017 2.1685927 7.2725345.2565904l32.4656357-33.0282491c1.6191214-1.64702463 4.1674246-1.77019424 5.9268545-.37168332.0212219.01615339.0421384.03292807.0630549.04970274.0074811.00621285.0149622.01242569.0224433.01863853.0958801.0781265.189012.16029135.276953.24991161 4.9814891 5.06766057 18.1340068 18.45291984 19.779083 20.12681494.0155729.0152215.0314511.0296664.0467186.0451985 1.7511855 1.7813773 1.7511855 4.6700386 0 6.4514159-.0140461.0142896-.0287029.0274919-.0429017.0414708-.0170996.0180172-.0332832.0365004-.0508409.054207-.100155.1022013-9.6258713 9.7928382-9.6258713 9.7928382 1.8753105-1.9078087 2.0597423-5.0926673.1803095-7.0045143l-10.4408519-10.6219421c-1.6739319-1.7029402-4.5306391-1.4239835-6.1576996.1821916-6.4822872 6.6238224-23.2971796 23.7010635-23.4092433 23.8150692-1.3472067 1.3705531-3.3380924 1.6853889-4.9824052.9473032-.5488676-.2269241-1.0629253-.5663007-1.5081264-1.0192169-.1003077-.1018906-9.8156467-9.9857469-9.8156467-9.9857469"/><path d="m115.031027 15.6666667c4.489023 0 7.302306 2.7882203 7.302306 9.2792941v12.3432061c0 .0243303-.018979.0438565-.042477.0438565h-5.459219c-.023347 0-.042477-.0195262-.042477-.0438565v-10.9594789c0-3.405156-1.013578-5.5335141-3.620199-5.5335141-2.337449 0-4.220453 2.0645104-4.220453 5.8742931v10.6193198c0 .0241753-.018979.0435465-.042477.0435465h-5.458767c-.023498 0-.042628-.0193712-.042628-.0435465v-10.9596339c0-3.405311-1.075937-5.5335141-3.6617723-5.5335141-2.4823533 0-4.3653569 2.0645105-4.3653569 5.8741381v10.5980889c0 .0241753-.0191298.0437016-.0424772.0437016h-5.4592191c-.0233474 0-.0424772-.0195263-.0424772-.0437016v-21.1960227c0-.0241754.0191298-.0438566.0424772-.0438566h2.8129823c1.4848931 0 2.688714 1.2385203 2.688714 2.7662147 0 .0241753.0189792.0438565.0424772.0438565.0126527 0 .024703-.0058889.0325357-.0159619 1.6332619-2.0547474 3.8824427-3.1558093 6.1727453-3.1558093 2.722454 0 4.868907 1.0578253 6.132226 3.4046911.007531.0136374.02154.0224707.036904.0224707h.01672c.012954 0 .025154-.0061988.033138-.0167368 1.696375-2.2239746 4.235515-3.410425 7.186473-3.410425z"/><path d="m132.812868 24.2785896h9.68115c-.592994-2.2211816-2.195357-3.6669789-4.741876-3.6669789-2.392595 0-4.258849 1.2361597-4.939274 3.6669789zm15.520146 2.0325993c0 .6702604-.043955 1.6346847-.153603 2.011544h-15.388121c.702323 2.4935273 2.787712 4.0026431 5.597642 4.0232407 1.410399.0128162 2.607097-.3509217 3.600162-.9567956 1.127329-.687959 2.598146-.5646787 3.577306.3054544l1.888631 1.6784736c-1.866094 2.2628345-5.07098 3.9602273-9.483273 3.9602273-6.431989 0-11.305091-4.3161839-11.305091-10.8541597 0-6.3701438 4.653646-10.8125069 10.888077-10.8125069 6.454047 0 10.778589 4.5052239 10.778589 10.6451325z"/><path d="m165.207253 15.6666667c.174969 0 .328107 0 .459414.021407v6.2637164c-.590721-.0426588-1.225423-.0639107-1.554009-.0639107-3.610934 0-5.580853 2.3861038-5.580853 5.5603882v9.8850657h-5.865138v-21.3046093h2.946592c1.611853 0 2.918546 1.2721647 2.918546 2.8412351v.2907007h.065654c1.662846-2.2582824 4.027004-3.4939931 6.609316-3.4939931z"/><path d="m179.482444 37.3330282c-6.708404 0-11.649111-4.3792573-11.649111-10.8121259s4.917934-10.8542356 11.943673-10.8542356c3.603547 0 7.342907 1.362005 9.632068 4.0231556l-2.15203 1.7150553c-.998207.7953548-2.44428.9094782-3.560147.2613548-1.016855-.5906039-2.24213-.9494519-3.670381-.9494519-3.62599 0-6.02819 2.3676032-6.02819 5.7626224 0 3.4362134 2.470188 5.8042743 6.073736 5.8042743 1.442442 0 2.664417-.3626622 3.641172-.8928479 1.120323-.6081497 2.538342-.4734291 3.513117.3202474l2.273649 1.851149c-1.948889 2.0951106-5.461841 3.7711076-10.017556 3.7711076z"/><path d="m202.503037 32.3043915c2.952645 0 5.294418-2.38898 5.294418-5.7835654 0-3.4365427-2.280538-5.8041626-5.29427-5.8041626-3.176681 0-5.314879 2.4933396-5.314879 5.8041626 0 3.2482683 2.199434 5.783718 5.314879 5.783718zm.000148 5.0286367c-6.475387 0-10.833185-4.5677152-10.833185-10.8120495 0-6.264779 4.357798-10.854312 10.833185-10.854312 6.333197 0 10.833482 4.4213981 10.833482 10.854312 0 6.4123166-4.500285 10.8123546-10.833482 10.8123546z"/><path d="m224.351507 37.3330282c-3.496935 0-6.469186-1.0683276-8.851507-3.0798717l1.133234-1.5460388c.852829-1.1636867 2.487193-1.5376472 3.783068-.8457212 1.197685.6395929 2.490217.9671706 3.979128.9671706 1.705022 0 2.688665-.7128287 2.688665-1.7395034 0-.963814-1.136735-1.4457973-3.977856-2.3258478-3.605945-1.1316461-6.731448-2.765873-6.731448-6.8100164 0-3.7928529 3.409885-6.2865328 7.868342-6.2865328 3.038454 0 5.507983.7967447 7.999792 2.6406092l-1.189091 1.7189059c-.818456 1.1832163-2.435315 1.595473-3.751718.945505-1.072761-.5297391-2.153319-.7787409-3.123912-.7787409-.961681 0-2.14186.4821358-2.14186 1.5715188 0 .8802031 1.136575 1.4879078 3.278436 2.2632921 4.74268 1.6763376 7.518553 2.6610543 7.518553 6.7891137 0 3.7090895-2.754071 6.5164628-8.480234 6.5164628z"/></g></g></svg>